<svg width="32" height="32" viewBox="0 0 32 32" fill="none" xmlns="http://www.w3.org/2000/svg">
<g id="gps_14025176 1" clip-path="url(#clip0_2994_2151)">
<g id="&#229;&#155;&#190;&#229;&#177;&#130;_x0020_1">
<path id="Vector" fill-rule="evenodd" clip-rule="evenodd" d="M16 32.0001C7.16485 32.0001 0 24.8353 0 16.0001C0 7.16497 7.16485 0.00012207 16 0.00012207C24.8351 0.00012207 32 7.16497 32 16.0001C32 24.8353 24.8351 32.0001 16 32.0001ZM16 5.59307C20.3769 5.59307 23.925 9.14116 23.925 13.5181C23.925 17.8949 16 26.4071 16 26.4071C16 26.4071 8.07496 17.8949 8.07496 13.5181C8.07496 9.14116 11.6231 5.59307 16 5.59307ZM16 10.3694C17.6595 10.3694 19.0052 11.7151 19.0052 13.3747C19.0052 15.0342 17.6595 16.38 16 16.38C14.3405 16.38 12.9948 15.0342 12.9948 13.3747C12.9948 11.7151 14.3405 10.3694 16 10.3694Z" fill="#3D6A9F"/>
</g>
</g>
<defs>
<clipPath id="clip0_2994_2151">
<rect width="32" height="32" fill="white"/>
</clipPath>
</defs>
</svg>
