<svg width="32" height="32" viewBox="0 0 32 32" fill="none" xmlns="http://www.w3.org/2000/svg">
<g id="mail_9068649 1" clip-path="url(#clip0_2994_2133)">
<g id="Layer 2">
<g id="01.mail">
<path id="Vector" d="M16 0C7.16375 0 0 7.16375 0 16C0 24.8363 7.16375 32 16 32C24.8363 32 32 24.8363 32 16C32 7.16375 24.8363 0 16 0ZM24.4375 20.9425C24.4363 21.3663 24.2675 21.7725 23.9678 22.0722C23.6681 22.3718 23.262 22.5407 22.8381 22.5419H9.16187C8.73805 22.5407 8.33191 22.3718 8.03222 22.0722C7.73253 21.7725 7.56365 21.3663 7.5625 20.9425V12.5825L15.9963 16.79L24.4375 12.6706V20.9425ZM24.4375 11.0938L16.0037 15.21L7.5625 11C7.57862 10.5866 7.75391 10.1953 8.05174 9.90812C8.34956 9.62089 8.74687 9.45989 9.16063 9.45875H22.8381C23.2618 9.4599 23.6679 9.62869 23.9676 9.92825C24.2672 10.2278 24.4362 10.6338 24.4375 11.0575V11.0938Z" fill="#3D6A9F"/>
</g>
</g>
</g>
<defs>
<clipPath id="clip0_2994_2133">
<rect width="32" height="32" fill="white"/>
</clipPath>
</defs>
</svg>
