<svg width="24" height="25" viewBox="0 0 24 25" fill="none" xmlns="http://www.w3.org/2000/svg">
<g id="Social" clip-path="url(#clip0_3018_2179)">
<path id="path" d="M24 12.3914C24 5.76396 18.6274 0.391373 12 0.391373C5.37259 0.391373 0 5.76396 0 12.3914C0 18.0191 3.87432 22.7412 9.10108 24.038V16.0584H6.62659V12.3914H9.10108V10.8113C9.10108 6.72684 10.9495 4.83372 14.9594 4.83372C15.7196 4.83372 17.0314 4.98276 17.568 5.13185V8.45604C17.2848 8.42623 16.7929 8.4113 16.1817 8.4113C14.214 8.4113 13.4538 9.15665 13.4538 11.0945V12.3914H17.3734L16.7001 16.0584H13.4538V24.3035C19.3955 23.5858 24 18.5266 24 12.3914Z" fill="#0866FF"/>
<path id="path_2" d="M16.7004 16.0584L17.3738 12.3914H13.4542V11.0945C13.4542 9.1566 14.2144 8.41131 16.1821 8.41131C16.7933 8.41131 17.2852 8.42619 17.5684 8.45599V5.13185C17.0318 4.98277 15.72 4.83368 14.9597 4.83368C10.9499 4.83368 9.10145 6.72684 9.10145 10.8113V12.3914H6.62695V16.0584H9.10145V24.038C10.0299 24.2683 11.0007 24.3914 12.0004 24.3914C12.4925 24.3914 12.9775 24.361 13.4542 24.3035V16.0584H16.7004Z" fill="white"/>
</g>
<defs>
<clipPath id="clip0_3018_2179">
<rect width="24" height="24" fill="white" transform="translate(0 0.391357)"/>
</clipPath>
</defs>
</svg>
