<svg width="24" height="25" viewBox="0 0 24 25" fill="none" xmlns="http://www.w3.org/2000/svg">
<g id="Social" clip-path="url(#clip0_3018_2186)">
<path id="Vector" d="M23.5216 6.57677C23.3859 6.06618 23.1185 5.60019 22.7462 5.22542C22.3738 4.85066 21.9095 4.58027 21.3998 4.44131C19.5234 3.93677 12.0234 3.93677 12.0234 3.93677C12.0234 3.93677 4.52344 3.93677 2.64707 4.44131C2.13737 4.58027 1.6731 4.85066 1.30073 5.22542C0.928354 5.60019 0.660943 6.06618 0.525256 6.57677C0.0234376 8.46131 0.0234375 12.3913 0.0234375 12.3913C0.0234375 12.3913 0.0234376 16.3213 0.525256 18.2059C0.660943 18.7164 0.928354 19.1824 1.30073 19.5572C1.6731 19.932 2.13737 20.2024 2.64707 20.3413C4.52344 20.8459 12.0234 20.8459 12.0234 20.8459C12.0234 20.8459 19.5234 20.8459 21.3998 20.3413C21.9095 20.2024 22.3738 19.932 22.7462 19.5572C23.1185 19.1824 23.3859 18.7164 23.5216 18.2059C24.0234 16.3213 24.0234 12.3913 24.0234 12.3913C24.0234 12.3913 24.0234 8.46131 23.5216 6.57677Z" fill="#FF0302"/>
<path id="Vector_2" d="M9.56934 15.96V8.82275L15.8421 12.3914L9.56934 15.96Z" fill="#FEFEFE"/>
</g>
<defs>
<clipPath id="clip0_3018_2186">
<rect width="24" height="24" fill="white" transform="translate(0 0.391357)"/>
</clipPath>
</defs>
</svg>
