<svg width="24" height="25" viewBox="0 0 24 25" fill="none" xmlns="http://www.w3.org/2000/svg">
<g id="Social" clip-path="url(#clip0_3018_2189)">
<path id="Vector" d="M22.2283 0.391357H1.77167C1.30179 0.391357 0.851161 0.578015 0.518909 0.910267C0.186657 1.24252 0 1.69315 0 2.16302V22.6197C0 23.0896 0.186657 23.5402 0.518909 23.8724C0.851161 24.2047 1.30179 24.3914 1.77167 24.3914H22.2283C22.6982 24.3914 23.1488 24.2047 23.4811 23.8724C23.8133 23.5402 24 23.0896 24 22.6197V2.16302C24 1.69315 23.8133 1.24252 23.4811 0.910267C23.1488 0.578015 22.6982 0.391357 22.2283 0.391357ZM7.15333 20.8364H3.545V9.37469H7.15333V20.8364ZM5.34667 7.78636C4.93736 7.78405 4.53792 7.66055 4.19873 7.43145C3.85955 7.20234 3.59584 6.87789 3.44088 6.49905C3.28591 6.1202 3.24665 5.70395 3.32803 5.30281C3.40941 4.90167 3.6078 4.53363 3.89816 4.24514C4.18851 3.95664 4.55782 3.76062 4.95947 3.68182C5.36112 3.60301 5.77711 3.64495 6.15495 3.80234C6.53279 3.95973 6.85554 4.22552 7.08247 4.56617C7.30939 4.90682 7.43032 5.30705 7.43 5.71636C7.43386 5.99039 7.38251 6.2624 7.27901 6.51616C7.17551 6.76993 7.02198 7.00026 6.82757 7.19342C6.63316 7.38659 6.40185 7.53864 6.14742 7.64051C5.893 7.74238 5.62067 7.79198 5.34667 7.78636ZM20.4533 20.8464H16.8467V14.5847C16.8467 12.738 16.0617 12.168 15.0483 12.168C13.9783 12.168 12.9283 12.9747 12.9283 14.6314V20.8464H9.32V9.38303H12.79V10.9714H12.8367C13.185 10.2664 14.405 9.06136 16.2667 9.06136C18.28 9.06136 20.455 10.2564 20.455 13.7564L20.4533 20.8464Z" fill="#0A66C2"/>
</g>
<defs>
<clipPath id="clip0_3018_2189">
<rect width="24" height="24" fill="white" transform="translate(0 0.391357)"/>
</clipPath>
</defs>
</svg>
